<svg xmlns="http://www.w3.org/2000/svg" xmlns:xlink="http://www.w3.org/1999/xlink" version="1.1"><metadata/><defs><font id="nidus_sansregular" horiz-adv-x="1193"><font-face ascent="1536" descent="-512" units-per-em="2048"/><glyph horiz-adv-x="0"/><glyph horiz-adv-x="1024"/><glyph horiz-adv-x="0"/><glyph horiz-adv-x="0"/><glyph horiz-adv-x="882"/><glyph horiz-adv-x="882"/><glyph horiz-adv-x="882"/><glyph d="M102 -2v242h242v-242h-242zM102 322v1183h242v-1183h-242z" horiz-adv-x="446" unicode="!"/><glyph d="M90 1528v168h219v-168l-51 -262h-115zM389 1528v168h219v-168l-51 -262h-115z" horiz-adv-x="690" unicode="&quot;"/><glyph d="M53 1067v2v2v2v2q0 139 41 223t100.5 128t126 59.5t119.5 15.5v137h242v-137h358v-241h-194h-387q-45 -2 -82 -25q-31 -18 -56.5 -56t-25.5 -108q0 -72 26.5 -110.5t57.5 -59.5q37 -23 82 -29h237q51 0 119 -14t127.5 -58t101 -128t44.5 -226v-2v-2v-2v-2 q-2 -139 -44 -225t-102.5 -133t-128 -63.5t-119.5 -16.5h-14v-135h-242v135h-340v238h582q45 8 82 32q31 23 55.5 62t26.5 110q-2 72 -26.5 110t-55.5 54q-37 20 -80 23h-238q-53 0 -120.5 15t-128 62.5t-102.5 133.5t-42 227z" horiz-adv-x="1134" unicode="$"/><glyph d="M51 428q0 94 20.5 155.5t45.5 96.5q29 41 65 63v11q-6 2 -27.5 20.5t-45 57t-41 96t-17.5 137.5q0 143 42 229t102.5 132.5t128 60.5t120.5 14h353v-244h-336q-47 -2 -84 -24q-31 -18 -56.5 -57t-25.5 -111t25.5 -111t56.5 -57t56.5 -22.5t27.5 -4.5h332v209h235v-209 h156v-241h-156v-396v-233v-2h-584q-53 0 -120.5 20.5t-128 69.5t-102.5 132t-42 208zM295 428q0 -72 25.5 -110.5t56.5 -57t57 -22.5l25 -5h334v396h-334q-45 -8 -82 -31q-31 -20 -56.5 -59t-25.5 -111z" horiz-adv-x="1216" unicode="&amp;"/><glyph d="M70 1528v168h219v-168l-51 -262h-115z" horiz-adv-x="362" unicode="'"/><glyph d="M100 625v123h207v208h123v-208h211v-123h-211v-209h-123v209h-207z" horiz-adv-x="741" unicode="+"/><glyph d="M29 -182l118 184h-81v242h241v-242h-4l-180 -184h-94z" horiz-adv-x="358" unicode=","/><glyph d="M94 625v123h541v-123h-541z" horiz-adv-x="720" unicode="-"/><glyph d="M61 0v242h242v-242h-242z" horiz-adv-x="354" unicode="."/><glyph d="M70 0l438 1501h240l-443 -1501h-119h-116z" horiz-adv-x="806" unicode="/"/><glyph d="M49 543v448q6 150 66 266q25 49 63.5 97.5t95 86.5t132 60.5t176.5 22.5h30v-2v2h31q98 0 174 -22.5t132.5 -60.5t95 -86t63.5 -98q59 -117 68 -266v-448q-10 -158 -68 -283q-25 -53 -63.5 -103.5t-94 -90t-131.5 -64.5t-176 -25h-31v3v-3h-32q-100 0 -176 25 t-132.5 64.5t-94.5 90t-62 103.5q-57 125 -66 283zM289 598q4 -100 41 -182q14 -35 37.5 -69t57.5 -61.5t80 -47t107 -23.5v-4v4q61 4 107.5 23.5t80.5 47t56.5 61.5t38.5 69q37 82 41 182v322q-4 94 -41 172q-16 33 -38.5 65.5t-56.5 58t-80 44t-108 22.5v2v-2 q-61 -4 -107 -22.5t-80 -44t-57.5 -58.5t-37.5 -65q-37 -78 -41 -172v-322zM487 631v241h242v-241h-242z" horiz-adv-x="1226" unicode="0"/><glyph d="M-23 1260l121 241h242v-1503h-242v1262h-121z" horiz-adv-x="440" unicode="1"/><glyph d="M70 0v244v170v16v2v6v6q2 137 44 222.5t102 130.5t127 60t118 15h303v-2h22q45 6 82 29q31 20 55.5 58t26.5 110q-2 70 -26.5 107.5t-55.5 56.5q-37 23 -82 26h-677v244h692q35 0 77 -6t85 -22.5t83.5 -46t72.5 -76.5t51.5 -115t21.5 -160v-8v-4v-4v-2v-6 q-2 -139 -44 -222.5t-101.5 -128.5t-127 -59t-118.5 -14h-37h-287q-49 -2 -86 -25q-33 -18 -59.5 -57t-26.5 -109v-12v-180h864v-244h-1099z" horiz-adv-x="1236" unicode="2"/><glyph d="M51 -2v235h651q2 0 28 4.5t56.5 23t55 57t24.5 110.5t-25.5 111t-56.5 59q-37 23 -82 31h-331v241h331q2 0 28 4.5t56.5 22.5t55 57t24.5 111t-25.5 110.5t-56.5 57.5q-37 23 -82 24h-651v244h666q53 0 120.5 -14t128 -60.5t102.5 -132.5t42 -229q0 -80 -17.5 -137.5 t-41 -96t-45 -57t-27.5 -20.5v-11q37 -23 65 -63q25 -35 45.5 -96.5t20.5 -155.5q0 -125 -42 -208t-102.5 -132t-128 -69.5t-120.5 -20.5h-666z" horiz-adv-x="1153" unicode="3"/><glyph d="M39 635l233 866h256l-151 -629h545v629h241v-1503h-241v637h-883z" horiz-adv-x="1267" unicode="4"/><glyph d="M104 0v244h715q45 6 82 28q31 18 55.5 57.5t26.5 108.5q-2 70 -26.5 109t-55.5 57q-37 23 -82 25h-715v872h1102v-241h-868v-386h498q51 0 118.5 -15t127 -60t101.5 -130t44 -223v-6v-6v-2v-4v-4q-2 -139 -44 -222t-101.5 -128t-127 -59.5t-118.5 -14.5h-732z" horiz-adv-x="1271" unicode="5"/><glyph d="M102 424v4v680h2q6 129 49.5 206t102.5 119t123.5 55t116.5 13h557v-244h-543q-45 -6 -82 -28q-31 -20 -56.5 -58t-25.5 -108v-191h402q51 0 117.5 -14t127 -59t102.5 -129t44 -221v-5v-4v-4v-4v-8q-2 -139 -44 -222t-102.5 -129t-127 -60.5t-117.5 -14.5l-252 2 q-53 0 -120 14.5t-127.5 59.5t-101.5 128t-43 222h-2zM346 438q0 -70 25.5 -108.5t56.5 -57.5q37 -23 82 -28h131v-2h90q45 4 82 26q31 18 55.5 56t26.5 108q-2 70 -26.5 109t-55.5 59q-37 23 -82 29h-385v-191z" unicode="6"/><glyph d="M53 0l840 1257h-840v244h1133v-244h-2l-836 -1257h-295z" horiz-adv-x="1245" unicode="7"/><glyph d="M57 428q0 94 20.5 155.5t45.5 96.5q29 41 65 63v11q-6 2 -27.5 20.5t-45 57t-41 96t-17.5 137.5q0 143 42 229t102.5 132.5t128 60.5t121.5 14h2h338h4q53 0 120.5 -14t128 -60.5t102.5 -132.5t42 -229q0 -80 -17.5 -137.5t-41 -96t-45 -57t-27.5 -20.5v-11 q37 -23 65 -63q25 -35 45.5 -96.5t20.5 -155.5q0 -125 -42 -208t-102.5 -132t-128 -69.5t-120.5 -20.5h-4h-338h-2q-53 0 -121 20.5t-128.5 69.5t-102.5 132t-42 208zM301 428q0 -72 24.5 -110.5t55.5 -57t56.5 -23t27.5 -4.5h313q2 0 27.5 4.5t56.5 23t56.5 57t25.5 110.5 t-26.5 111t-57.5 59q-37 23 -82 31h-313q-45 -8 -82 -31q-31 -20 -56.5 -59t-25.5 -111zM301 1065q0 -72 24.5 -111t55.5 -57t56.5 -22.5t27.5 -4.5h313q2 0 27.5 4.5t56.5 22.5t56.5 57t25.5 111t-26.5 110.5t-57.5 57.5q-37 23 -82 24h-313q-45 -2 -82 -24 q-31 -18 -56.5 -57t-25.5 -111z" horiz-adv-x="1241" unicode="8"/><glyph d="M51 1051v4v4v4v4l2 6q2 137 43 222t101.5 130t127 60.5t119.5 15.5l252 -2q51 0 118 -14.5t127 -59.5t102 -129t44 -221v-4v-680h-2q-6 -129 -49 -205.5t-101 -118.5t-122.5 -55.5t-116.5 -13.5h-559v244h543q45 6 82 28q31 18 55.5 57.5t26.5 108.5v191h-400 q-53 0 -119.5 14t-127 59t-101.5 128t-43 223h-2zM295 1065q0 -70 25.5 -108.5t56.5 -57.5q37 -23 82 -29h385v191q-2 70 -26.5 107.5t-55.5 58.5q-37 23 -82 28h-131h-90q-45 -2 -82 -24q-31 -18 -56.5 -57t-25.5 -109z" horiz-adv-x="1189" unicode="9"/><glyph d="M70 0v242h241v-242h-241zM70 627v241h241v-241h-241z" horiz-adv-x="372" unicode=":"/><glyph d="M29 -238h94l180 240h4v242h-241v-242h81zM68 633v241h241v-241h-241z" horiz-adv-x="372" unicode=";"/><glyph d="M49 1260v241h434q51 0 119 -14t127 -59.5t101 -129.5t44 -223v-2v-2v-2v-2q-2 -141 -44 -227t-102 -133.5t-128 -62.5t-119 -15h-102v-269h-242v512h242h86q45 6 82 29q31 20 57.5 59t26.5 111q0 70 -25.5 108t-56.5 56q-37 23 -82 25h-418zM137 0v242h242v-242h-242z" horiz-adv-x="917" unicode="?"/><glyph d="M39 0l440 1501h123h119l444 -1501h-239l-113 391h-420l-114 -391h-240zM461 629h282l-141 485z" horiz-adv-x="1208" unicode="A"/><glyph d="M102 6v1503h242h401q51 0 120 -14t128.5 -60t101.5 -132t42 -230q0 -80 -17.5 -137t-41 -96t-45 -57.5t-27.5 -20.5v-10q37 -23 65 -64q25 -35 45.5 -96.5t20.5 -155.5q0 -125 -42 -208t-101.5 -132t-128 -69.5t-120.5 -20.5h-401h-242zM344 242h385q2 0 27.5 4 t56.5 22.5t55.5 57.5t24.5 110q0 72 -25.5 111t-56.5 59q-37 23 -82 31h-385v-395zM344 879h385q2 0 27.5 4t56.5 22.5t55.5 57t24.5 110.5t-25.5 110t-56.5 56q-37 23 -82 25h-385v-385z" unicode="B"/><glyph d="M51 563v402q8 150 66 266q25 49 62.5 97t94 86t132 61.5t176.5 23.5h532v-242h-463q-68 0 -119 -15t-88.5 -41.5t-64.5 -59.5t-43 -66q-39 -82 -45 -182v-275q6 -109 45 -192q16 -37 43 -70.5t64.5 -61.5t89 -44.5t118.5 -16.5l463 3v-238h-532q-100 0 -176 24.5 t-132.5 64.5t-94.5 90t-62 104q-57 125 -66 282z" horiz-adv-x="1161" unicode="C"/><glyph d="M104 0v1501h529q100 0 176 -23.5t132 -61.5t95 -86t64 -97q59 -119 67 -268v-400q-10 -158 -67 -282q-25 -53 -64 -103.5t-94 -90.5t-131 -64.5t-176 -24.5h-531zM348 236h217q68 0 119 16t90 44t65.5 61.5t43.5 70.5q39 84 45 193v274q-6 100 -45 180q-16 33 -43 66 t-66 59.5t-90 41.5t-119 15h-217v-1021z" horiz-adv-x="1218" unicode="D"/><glyph d="M100 0v1501h1037v-248h-795v-387h465v-241h-465v-389h795v-236h-1037z" unicode="E"/><glyph d="M102 0v1501h1037v-250h-795v-385h465v-241h-465v-625v-2h-242v2z" unicode="F"/><glyph d="M49 565v402q8 150 66 266q25 49 62.5 97t94 86t132 61.5t176.5 23.5h532v-241h-463q-68 0 -119 -15.5t-89 -42t-64.5 -59.5t-42.5 -66q-39 -82 -45 -182v-274q6 -109 45 -193q16 -37 42.5 -70.5t64.5 -61.5t89.5 -44t118.5 -16h219h2v395h-243v241h485v-870v-2h-532 q-100 0 -176 24.5t-132.5 64.5t-94.5 90t-62 104q-57 125 -66 282z" horiz-adv-x="1218" unicode="G"/><glyph d="M102 0v1501h242v-629h641v629h242v-1501h-242v629h-641v-629h-242z" horiz-adv-x="1333" unicode="H"/><glyph d="M102 -2v1503h242v-1503h-242z" horiz-adv-x="446" unicode="I"/><glyph d="M41 379v20h242v-6q2 -45 24 -82q18 -31 57 -56.5t111 -25.5h6h2h4q61 0 99.5 20.5t59 46.5t27.5 52.5t9 38.5v1114h242v-1122q0 -53 -14.5 -121t-60.5 -128t-132 -101t-230 -41h-6h-6q-141 0 -227 42t-132 101t-60.5 127t-14.5 121z" horiz-adv-x="1007" unicode="J"/><glyph d="M100 -2v1501h244v-930l539 932h266l-449 -747l441 -756h-264l-310 526l-223 -383v-143h-244z" horiz-adv-x="1181" unicode="K"/><glyph d="M102 0v1501h242v-1268h793v-233h-1035z" horiz-adv-x="1185" unicode="L"/><glyph d="M104 0v1501h242l324 -543l323 543h242v-1501h-242v1063l-323 -551l-324 553v-1065h-242z" horiz-adv-x="1337" unicode="M"/><glyph d="M104 -4v1501h242l637 -1059v1061h254v-1503h-254l-637 1061v-1061h-242z" horiz-adv-x="1341" unicode="N"/><glyph d="M51 543v448q8 150 68 266q25 49 63.5 97.5t95 86.5t132 60.5t176.5 22.5h59q100 0 176 -22.5t132.5 -60.5t95 -86t63.5 -98q59 -117 68 -266v-448q-10 -158 -68 -283q-25 -53 -63.5 -103.5t-94 -90t-131 -64.5t-176.5 -25h-63q-100 0 -176 25t-132.5 64.5t-95.5 90 t-63 103.5q-59 125 -66 283zM293 598q4 -100 41 -182q14 -35 37.5 -69t57.5 -62.5t79 -48t106 -23.5l2 -2v2q61 4 107.5 23.5t80.5 48t56.5 62.5t38.5 69q37 82 41 182v322q-4 92 -41 170q-16 33 -38.5 64.5t-56.5 58t-80 45t-108 22.5v4l-2 -4q-61 -4 -106 -22.5t-79 -45 t-57.5 -58.5t-37.5 -64q-37 -78 -41 -170v-322z" horiz-adv-x="1230" unicode="O"/><glyph d="M100 -4l2 1503h643q51 0 118 -15.5t127.5 -60.5t102.5 -130t44 -222v-6v-4v-4v-4v-4q-2 -139 -44 -222.5t-102.5 -128.5t-127 -59t-118.5 -14h-401v-7v-622h-244zM344 868h385q45 6 82 29q31 20 55.5 58t26.5 110q-2 70 -26.5 107.5t-55.5 56.5q-37 23 -82 26h-385v-274 v-113z" unicode="P"/><glyph d="M51 545v448q8 150 68 267q25 49 63.5 97t94 86t131 60.5t176.5 22.5h61q98 0 174 -22.5t132.5 -60.5t95 -86t63.5 -97q59 -117 68 -267v-448q-2 -61 -17 -129q-12 -57 -37.5 -125t-72.5 -129l137 -180l-191 -148l-141 182q-43 -16 -95 -26t-114 -10h-65q-100 0 -176 24.5 t-132.5 64.5t-94.5 90t-62 103q-57 125 -66 283zM291 600q4 -100 41 -182q14 -35 37.5 -69t57.5 -61.5t80 -47t107 -23.5v-2v2q61 4 107.5 23.5t80.5 47t56.5 61.5t38.5 69q37 82 41 182v322q-4 94 -41 172q-16 33 -38.5 65.5t-56.5 58t-80 44t-108 22.5v2v-2 q-61 -4 -107 -22.5t-80 -44t-57.5 -58.5t-37.5 -65q-37 -78 -41 -172v-322z" horiz-adv-x="1230" unicode="Q"/><glyph d="M102 0v1501h643q51 0 120 -14t128.5 -60.5t101.5 -131.5t42 -228q0 -80 -17.5 -137.5t-41 -95t-45 -57t-27.5 -21.5v-8q37 -20 65 -60q25 -35 45.5 -95.5t20.5 -154.5v-2v-436h-242v438h-2q0 72 -25.5 110t-56.5 56q-37 23 -82 27h-385v-387v-244h-242zM344 872h385 q2 0 27.5 4.5t56.5 23t55.5 57t24.5 110.5t-25.5 109.5t-56.5 56.5q-37 23 -82 27h-385v-388z" horiz-adv-x="1212" unicode="R"/><glyph d="M53 1067v2v2v2v2q0 139 42 223t102.5 129.5t127 59.5t119.5 14h596v-241h-194h-385q-45 -2 -82 -25q-31 -18 -56.5 -56t-25.5 -108q0 -72 25.5 -110.5t56.5 -59.5q37 -23 84 -29h237q51 0 119 -14t127.5 -58t100 -128t43.5 -226v-2v-2v-2v-2q-2 -139 -44 -225 t-101.5 -133t-127 -63.5t-119.5 -16.5h-596v238l580 -2q45 8 82 32q31 23 56.5 63t25.5 111q0 72 -25.5 110t-56.5 54q-37 20 -80 23h-238q-53 0 -120.5 15t-128 62.5t-102.5 133.5t-42 227z" horiz-adv-x="1134" unicode="S"/><glyph d="M47 1260v241h1071v-241h-416v-1260h-243v1260h-412z" horiz-adv-x="1163" unicode="T"/><glyph d="M104 539v962h242v-907q4 -100 41 -182q14 -35 38 -69t57.5 -61.5t78.5 -47t107 -23.5l2 -4v4q61 4 107 23.5t80 47t56.5 61.5t38.5 69q37 82 41 182v907h240v-962q-10 -158 -68 -283q-25 -53 -63.5 -103.5t-94 -90t-131 -64.5t-176.5 -25h-63q-100 0 -176 25t-132.5 64.5 t-95 90t-63.5 103.5q-59 125 -66 283z" horiz-adv-x="1341" unicode="U"/><glyph d="M33 1499h239l324 -1114l326 1114h239l-442 -1501h-242z" horiz-adv-x="1198" unicode="V"/><glyph d="M104 0v1501h242v-1065l324 553l323 -555v1067h242v-1501h-242l-323 543l-324 -543h-242z" horiz-adv-x="1337" unicode="W"/><glyph d="M39 0l442 750l-442 751h250l315 -536l316 536h251l-442 -751l442 -750h-249l-318 537l-313 -537h-252z" horiz-adv-x="1208" unicode="X"/><glyph d="M43 1501h250l315 -536l316 536h252l-447 -756v-745h-242v745z" horiz-adv-x="1218" unicode="Y"/><glyph d="M57 236l844 1021h-840v244h1133v-244h-2l-838 -1021h840v-238h-1133v235z" horiz-adv-x="1259" unicode="Z"/><glyph d="M57 1501h240l438 -1501h-117h-120z" horiz-adv-x="790" unicode="\"/><glyph d="M59 1626l115 242h162l115 -242h-95l-102 135l-100 -135h-95z" horiz-adv-x="501" unicode="^"/><glyph d="M2 1825h94l183 -242h-224z" horiz-adv-x="96" unicode="`"/><glyph d="M39 0l440 1501h123h119l444 -1501h-239l-113 391h-420l-114 -391h-240zM461 629h282l-141 485z" horiz-adv-x="1208" unicode="a"/><glyph d="M102 6v1503h242h401q51 0 120 -14t128.5 -60t101.5 -132t42 -230q0 -80 -17.5 -137t-41 -96t-45 -57.5t-27.5 -20.5v-10q37 -23 65 -64q25 -35 45.5 -96.5t20.5 -155.5q0 -125 -42 -208t-101.5 -132t-128 -69.5t-120.5 -20.5h-401h-242zM344 242h385q2 0 27.5 4 t56.5 22.5t55.5 57.5t24.5 110q0 72 -25.5 111t-56.5 59q-37 23 -82 31h-385v-395zM344 879h385q2 0 27.5 4t56.5 22.5t55.5 57t24.5 110.5t-25.5 110t-56.5 56q-37 23 -82 25h-385v-385z" unicode="b"/><glyph d="M51 563v402q8 150 66 266q25 49 62.5 97t94 86t132 61.5t176.5 23.5h532v-242h-463q-68 0 -119 -15t-88.5 -41.5t-64.5 -59.5t-43 -66q-39 -82 -45 -182v-275q6 -109 45 -192q16 -37 43 -70.5t64.5 -61.5t89 -44.5t118.5 -16.5l463 3v-238h-532q-100 0 -176 24.5 t-132.5 64.5t-94.5 90t-62 104q-57 125 -66 282z" horiz-adv-x="1161" unicode="c"/><glyph d="M104 0v1501h529q100 0 176 -23.5t132 -61.5t95 -86t64 -97q59 -119 67 -268v-400q-10 -158 -67 -282q-25 -53 -64 -103.5t-94 -90.5t-131 -64.5t-176 -24.5h-531zM348 236h217q68 0 119 16t90 44t65.5 61.5t43.5 70.5q39 84 45 193v274q-6 100 -45 180q-16 33 -43 66 t-66 59.5t-90 41.5t-119 15h-217v-1021z" horiz-adv-x="1218" unicode="d"/><glyph d="M100 0v1501h1037v-248h-795v-387h465v-241h-465v-389h795v-236h-1037z" unicode="e"/><glyph d="M100 0v1501h1037v-250h-795v-385h465v-241h-465v-625v-2h-242v2z" unicode="f"/><glyph d="M49 565v402q8 150 66 266q25 49 62.5 97t94 86t132 61.5t176.5 23.5h532v-241h-463q-68 0 -119 -15.5t-89 -42t-64.5 -59.5t-42.5 -66q-39 -82 -45 -182v-274q6 -109 45 -193q16 -37 42.5 -70.5t64.5 -61.5t89.5 -44t118.5 -16h219h2v395h-243v241h485v-870v-2h-532 q-100 0 -176 24.5t-132.5 64.5t-94.5 90t-62 104q-57 125 -66 282z" horiz-adv-x="1218" unicode="g"/><glyph d="M102 0v1501h242v-629h641v629h242v-1501h-242v629h-641v-629h-242z" horiz-adv-x="1333" unicode="h"/><glyph d="M102 -2v1503h242v-1503h-242z" horiz-adv-x="446" unicode="i"/><glyph d="M41 379v20h242v-6q2 -45 24 -82q18 -31 57 -56.5t111 -25.5h6h2h4q61 0 99.5 20.5t59 46.5t27.5 52.5t9 38.5v1114h242v-1122q0 -53 -14.5 -121t-60.5 -128t-132 -101t-230 -41h-6h-6q-141 0 -227 42t-132 101t-60.5 127t-14.5 121z" horiz-adv-x="1007" unicode="j"/><glyph d="M100 -2v1501h244v-930l539 932h266l-449 -747l441 -756h-264l-310 526l-223 -383v-143h-244z" horiz-adv-x="1181" unicode="k"/><glyph d="M102 0v1501h242v-1268h793v-233h-1035z" horiz-adv-x="1185" unicode="l"/><glyph d="M104 0v1501h242l324 -543l323 543h242v-1501h-242v1063l-323 -551l-324 553v-1065h-242z" horiz-adv-x="1337" unicode="m"/><glyph d="M104 -4v1501h242l637 -1059v1061h254v-1503h-254l-637 1061v-1061h-242z" horiz-adv-x="1341" unicode="n"/><glyph d="M51 543v448q8 150 68 266q25 49 63.5 97.5t95 86.5t132 60.5t176.5 22.5h59q100 0 176 -22.5t132.5 -60.5t95 -86t63.5 -98q59 -117 68 -266v-448q-10 -158 -68 -283q-25 -53 -63.5 -103.5t-94 -90t-131 -64.5t-176.5 -25h-63q-100 0 -176 25t-132.5 64.5t-95.5 90 t-63 103.5q-59 125 -66 283zM293 598q4 -100 41 -182q14 -35 37.5 -69t57.5 -62.5t79 -48t106 -23.5l2 -2v2q61 4 107.5 23.5t80.5 48t56.5 62.5t38.5 69q37 82 41 182v322q-4 92 -41 170q-16 33 -38.5 64.5t-56.5 58t-80 45t-108 22.5v4l-2 -4q-61 -4 -106 -22.5t-79 -45 t-57.5 -58.5t-37.5 -64q-37 -78 -41 -170v-322z" horiz-adv-x="1230" unicode="o"/><glyph d="M100 -4l2 1503h643q51 0 118 -15.5t127.5 -60.5t102.5 -130t44 -222v-6v-4v-4v-4v-4q-2 -139 -44 -222.5t-102.5 -128.5t-127 -59t-118.5 -14h-401v-7v-622h-244zM344 868h385q45 6 82 29q31 20 55.5 58t26.5 110q-2 70 -26.5 107.5t-55.5 56.5q-37 23 -82 26h-385v-274 v-113z" unicode="p"/><glyph d="M51 545v448q8 150 68 267q25 49 63.5 97t94 86t131 60.5t176.5 22.5h61q98 0 174 -22.5t132.5 -60.5t95 -86t63.5 -97q59 -117 68 -267v-448q-2 -61 -17 -129q-12 -57 -37.5 -125t-72.5 -129l137 -180l-191 -148l-141 182q-43 -16 -95 -26t-114 -10h-65q-100 0 -176 24.5 t-132.5 64.5t-94.5 90t-62 103q-57 125 -66 283zM291 600q4 -100 41 -182q14 -35 37.5 -69t57.5 -61.5t80 -47t107 -23.5v-2v2q61 4 107.5 23.5t80.5 47t56.5 61.5t38.5 69q37 82 41 182v322q-4 94 -41 172q-16 33 -38.5 65.5t-56.5 58t-80 44t-108 22.5v2v-2 q-61 -4 -107 -22.5t-80 -44t-57.5 -58.5t-37.5 -65q-37 -78 -41 -172v-322z" horiz-adv-x="1230" unicode="q"/><glyph d="M102 0v1501h643q51 0 120 -14t128.5 -60.5t101.5 -131.5t42 -228q0 -80 -17.5 -137.5t-41 -95t-45 -57t-27.5 -21.5v-8q37 -20 65 -60q25 -35 45.5 -95.5t20.5 -154.5v-2v-436h-242v438h-2q0 72 -25.5 110t-56.5 56q-37 23 -82 27h-385v-387v-244h-242zM344 872h385 q2 0 27.5 4.5t56.5 23t55.5 57t24.5 110.5t-25.5 109.5t-56.5 56.5q-37 23 -82 27h-385v-388z" horiz-adv-x="1212" unicode="r"/><glyph d="M53 1067v2v2v2v2q0 139 42 223t102.5 129.5t127 59.5t119.5 14h596v-241h-194h-385q-45 -2 -82 -25q-31 -18 -56.5 -56t-25.5 -108q0 -72 25.5 -110.5t56.5 -59.5q37 -23 84 -29h237q51 0 119 -14t127.5 -58t100 -128t43.5 -226v-2v-2v-2v-2q-2 -139 -44 -225 t-101.5 -133t-127 -63.5t-119.5 -16.5h-596v238l580 -2q45 8 82 32q31 23 56.5 63t25.5 111q0 72 -25.5 110t-56.5 54q-37 20 -80 23h-238q-53 0 -120.5 15t-128 62.5t-102.5 133.5t-42 227z" horiz-adv-x="1134" unicode="s"/><glyph d="M47 1260v241h1071v-241h-416v-1260h-243v1260h-412z" horiz-adv-x="1163" unicode="t"/><glyph d="M100 539v962h242v-907q4 -100 41 -182q14 -35 37.5 -69t57.5 -61.5t79 -47t107 -23.5l2 -4v4q61 4 107 23.5t80 47t56.5 61.5t38.5 69q37 82 41 182v907h240v-962q-10 -158 -68 -283q-25 -53 -63.5 -103.5t-94 -90t-131 -64.5t-176.5 -25h-63q-100 0 -176 25t-132.5 64.5 t-95.5 90t-63 103.5q-59 125 -66 283z" horiz-adv-x="1329" unicode="u"/><glyph d="M33 1499h239l324 -1114l326 1114h239l-442 -1501h-242z" horiz-adv-x="1198" unicode="v"/><glyph d="M104 0v1501h242v-1065l324 553l323 -555v1067h242v-1501h-242l-323 543l-324 -543h-242z" horiz-adv-x="1337" unicode="w"/><glyph d="M39 0l442 750l-442 751h250l315 -536l316 536h251l-442 -751l442 -750h-249l-318 537l-313 -537h-252z" horiz-adv-x="1208" unicode="x"/><glyph d="M43 1501h250l315 -536l316 536h252l-447 -756v-745h-242v745z" horiz-adv-x="1218" unicode="y"/><glyph d="M57 236l844 1021h-840v244h1133v-244h-2l-838 -1021h840v-238h-1133v235z" horiz-adv-x="1259" unicode="z"/><glyph d="M-2 664v155q20 10 42.5 20.5t49.5 14.5q109 18 215 -57q61 -47 121 -37q25 4 44 16t32.5 24.5t21.5 23.5l8 10l3 -3v-159q-41 -25 -89 -33q-10 -2 -21 -2h-22q-88 0 -172 59q-61 47 -120 37q-25 -4 -44.5 -16t-33 -24.5t-21.5 -22.5l-8 -11z" horiz-adv-x="532" unicode="~"/><glyph d="M102 -2v1184h242v-1184h-242zM102 1264v241h242v-241h-242z" horiz-adv-x="446" unicode="¡"/><glyph d="M51 565v400q8 147 64 262q25 49 60.5 96t89.5 86t127 62.5t169 27.5v137h242v-137h311v-242h-244h-217q-68 0 -120 -15t-89.5 -41.5t-64.5 -59.5t-43 -66q-39 -82 -45 -182v-275q6 -109 45 -192q16 -37 43 -70.5t64.5 -61.5t90 -44.5t119.5 -16.5l461 3v-238h-311v-129 h-242v131q-96 2 -169 27.5t-127 66.5t-90 91.5t-60 103.5q-55 123 -64 276z" horiz-adv-x="1161" unicode="¢"/><glyph d="M57 686v123h146v313q0 51 15 120t61.5 128.5t132.5 101t227 41.5h6h6q141 0 227.5 -41.5t132.5 -101t60 -128t14 -120.5v-20h-239v4q-4 45 -27 82q-18 31 -57 56.5t-111 25.5h-6h-6q-61 0 -99 -20.5t-58.5 -46t-28 -51.5t-9.5 -38v-305h293v-123h-293v-450l639 -3v-233 h-639h-241v385v301h-146z" horiz-adv-x="1144" unicode="£"/><glyph d="M47 1497h244l323 -547l326 547h242l-391 -663h161v-123h-217v-111h217v-123h-217v-485h-241v485h-222v123h222v111h-222v123h166z" horiz-adv-x="1226" unicode="¥"/><glyph d="M76 1647v196h196v-196h-196zM557 1647v196h197v-196h-197z" horiz-adv-x="823" unicode="¨"/><glyph d="M94 625v123h541v-123h-541z" horiz-adv-x="720" unicode="­"/><glyph d="M119 1769q0 86 59.5 145.5t145.5 59.5t145 -59.5t59 -145.5t-59 -145t-145 -59t-145.5 59t-59.5 145zM242 1769q0 -35 23.5 -58t58.5 -23t58.5 23.5t23.5 57.5q0 35 -23.5 58.5t-58.5 23.5t-58.5 -23.5t-23.5 -58.5z" horiz-adv-x="643" unicode="°"/><glyph d="M94 201v123h541v-123h-541zM100 625v123h207v208h123v-208h211v-123h-211v-209h-123v209h-207z" horiz-adv-x="743" unicode="±"/><glyph d="M6 1583l53 242h224l-183 -242h-94z" horiz-adv-x="100" unicode="´"/><glyph d="M117 627v241h241v-241h-241z" horiz-adv-x="477" unicode="·"/><glyph d="M0 426q0 -139 42 -223t102.5 -129t127 -59.5t119.5 -14.5h434v242h-417q-45 2 -82 24q-31 18 -56.5 55t-25.5 109q0 70 25.5 110t56.5 60q37 23 84 29h86h241v510h-241v-267l-103 -2q-53 0 -120.5 -15t-128 -62.5t-102.5 -132.5t-42 -226v-2v-2v-2v-2zM496 1260v241h241 v-241h-241z" horiz-adv-x="825" unicode="¿"/><glyph d="M39 0l440 1501h123h119l444 -1501h-239l-113 391h-420l-114 -391h-240zM449 1855h94l182 -241h-223zM461 629h282l-141 485z" horiz-adv-x="1208" unicode="À"/><glyph d="M39 0h240l112 391h422l113 -391h239l-444 1501h-119h-123zM461 629l141 485l141 -485h-282zM549 1612l53 241h223l-182 -241h-94z" horiz-adv-x="1208" unicode="Á"/><glyph d="M39 0l440 1501h121h121l444 -1501h-239l-115 391h-420l-112 -391h-240zM408 1630l114 242h162l115 -242h-94l-103 135l-100 -135h-94zM461 629h280l-139 485z" horiz-adv-x="1208" unicode="Â"/><glyph d="M39 0l440 1501h123h119l444 -1501h-239l-113 391h-420l-114 -391h-240zM334 1673v154q43 27 92 35q109 18 215 -58q59 -45 121 -35q23 4 43 15.5t35 23.5q16 14 28 33l2 -2v-158q-41 -25 -88 -32q-10 -2 -21 -3t-22 -1q-86 0 -172 61q-59 45 -121 35q-25 -4 -44 -15.5 t-33 -23.5q-16 -14 -29 -33zM461 629h282l-141 485z" horiz-adv-x="1208" unicode="Ã"/><glyph d="M39 0h240l114 391h420l113 -391h239l-444 1501h-119h-123zM262 1647v196h197v-196h-197zM461 629l141 485l141 -485h-282zM743 1647v196h197v-196h-197z" horiz-adv-x="1208" unicode="Ä"/><glyph d="M39 0h240l114 391h420l113 -391h239l-444 1501h-119h-123zM395 1769q0 86 59.5 145.5t145.5 59.5t145.5 -59.5t59.5 -145.5t-59.5 -145t-145.5 -59t-145.5 59t-59.5 145zM461 629l141 485l141 -485h-282zM518 1769q0 -35 23.5 -58t58.5 -23t58.5 23.5t23.5 57.5 q0 35 -23.5 58.5t-58.5 23.5t-58.5 -23.5t-23.5 -58.5z" horiz-adv-x="1208" unicode="Å"/><glyph d="M45 0l569 1501h1092v-241h-692v-386h362v-241h-362v-389h692v-242h-934v389h-334l-149 -391h-244zM530 629h242v633z" horiz-adv-x="1765" unicode="Æ"/><glyph d="M51 565v400q8 150 66 266q25 49 62.5 97t94 86t132 61.5t176.5 23.5h532v-242h-244h-217q-68 0 -120 -15t-89.5 -41.5t-64.5 -59.5t-43 -66q-39 -82 -45 -182v-275q6 -109 45 -192q16 -37 43 -70.5t64.5 -61.5t90 -44.5t119.5 -16.5l461 3v-238h-407v-21q61 -18 102 -71 t41 -123q0 -86 -59.5 -145.5t-145.5 -59.5q-78 0 -137 53q-29 27 -47.5 64t-20.5 80h123q2 -29 23 -47q23 -27 59 -27q35 0 58.5 23.5t23.5 58.5t-23.5 58.5t-58.5 23.5h-61v133h-2q-100 0 -176 24.5t-132.5 64.5t-94.5 90t-62 104q-57 125 -66 284z" horiz-adv-x="1167" unicode="Ç"/><glyph d="M100 0v1499h1037v-242h-795v-385h465v-241h-465v-391h795v-240h-1037zM479 1825h94l183 -242h-224z" unicode="È"/><glyph d="M100 2h1037v242h-795v389h467v241h-467v386h795v241h-1037v-1499zM565 1583l53 242h224l-183 -242h-94z" unicode="É"/><glyph d="M100 2v1499h1037v-241h-795v-386h465v-241h-465v-389h795v-242h-1037zM436 1616l115 242h162l114 -242h-94l-102 135l-101 -135h-94z" unicode="Ê"/><glyph d="M100 0h1037v242h-795v391h465v241h-465v386h795v241h-1037v-1501zM287 1647v196h196v-196h-196zM768 1647v196h197v-196h-197z" unicode="Ë"/><glyph d="M68 1862h94l182 -242h-223zM106 -2v1503h242v-1503h-242z" horiz-adv-x="446" unicode="Ì"/><glyph d="M102 -2v1503h242v-1503h-242zM141 1620l54 242h223l-182 -242h-95z" horiz-adv-x="446" unicode="Í"/><glyph d="M33 1630l114 242h162l115 -242h-94l-103 135l-100 -135h-94zM109 -2v1501h241v-1501h-241z" horiz-adv-x="446" unicode="Î"/><glyph d="M-25 1647v196h197v-196h-197zM106 -2v1503h242v-1503h-242zM293 1647v196h196v-196h-196z" horiz-adv-x="446" unicode="Ï"/><glyph d="M37 686v123h149l2 692h531q98 0 174 -23.5t132 -61.5t95 -86t64 -97q59 -117 67 -266v-402q-10 -158 -69 -282q-25 -53 -64 -103.5t-96 -90.5t-133 -64.5t-174 -24.5h-533l2 686h-147zM432 236h217q68 0 119 16t90 44t65.5 61.5t43.5 70.5q39 84 45 193v274 q-6 100 -45 180q-16 33 -43 66t-66 59.5t-90 41.5t-119 15h-217v-448h285v-123h-285v-450z" horiz-adv-x="1304" unicode="Ð"/><glyph d="M104 -2v1501h242l639 -1059v1061h252v-1503h-252l-639 1061v-1061h-242zM401 1661v154q43 27 93 34q109 18 215 -57q59 -45 120 -35q23 4 43.5 15.5t34.5 23.5q16 14 29 33l2 -2v-158q-41 -25 -88 -33q-10 -2 -21.5 -3t-21.5 -1q-86 0 -172 62q-59 45 -121 35 q-25 -4 -44 -15.5t-34 -23.5q-16 -14 -28 -33z" horiz-adv-x="1341" unicode="Ñ"/><glyph d="M51 545v448q6 150 66 267q25 49 63.5 97t95 86t132 60.5t176.5 22.5h61q98 0 174 -22.5t132.5 -60.5t95 -86t63.5 -97q59 -117 68 -267v-448q-10 -158 -68 -283q-25 -53 -63.5 -103t-94 -90t-131.5 -64.5t-176 -24.5h-63q-100 0 -176 24.5t-132.5 64.5t-94.5 90t-62 103 q-57 125 -66 283zM291 600q4 -100 41 -182q14 -35 37.5 -69t57.5 -61.5t80 -47t107 -23.5v-4v4q61 4 107.5 23.5t80.5 47t56.5 61.5t38.5 69q37 82 41 182v322q-4 94 -41 172q-16 33 -38.5 65.5t-56.5 58t-80 44t-108 22.5q-61 -4 -107 -22.5t-80 -44t-57.5 -58.5t-37.5 -65 q-37 -78 -41 -172v-322zM485 1853h95l182 -241h-223z" horiz-adv-x="1230" unicode="Ò"/><glyph d="M51 551q8 -158 66 -283q25 -53 62.5 -103t94 -90t132 -64.5t176.5 -24.5h63q100 0 176 24.5t131.5 64.5t94 90t63.5 103q57 125 68 283v448q-8 150 -68 267q-25 49 -63.5 97t-95 86t-132.5 60.5t-174 22.5h-61q-100 0 -176 -22.5t-132.5 -60.5t-95.5 -86t-63 -97 q-59 -117 -66 -267v-448zM291 606v322q4 94 41 172q14 33 37.5 65.5t57.5 58t80 44t107 22.5q61 -4 107.5 -22.5t80.5 -44t56.5 -58t38.5 -65.5q37 -78 41 -172v-322q-4 -100 -41 -182q-16 -35 -38.5 -68.5t-56.5 -61.5t-80 -47.5t-108 -23.5v-4v4q-61 4 -107 23.5t-80 47.5 t-57.5 61.5t-37.5 68.5q-37 82 -41 182zM549 1620l53 242h223l-182 -242h-94z" horiz-adv-x="1230" unicode="Ó"/><glyph d="M51 541v448q8 150 68 266q25 49 63.5 97.5t94 86.5t131 60.5t176.5 22.5h61q98 0 174 -22.5t132.5 -60.5t95 -86t63.5 -98q59 -117 68 -266v-448q-8 -158 -66 -283q-25 -53 -63.5 -103.5t-95 -90t-132.5 -64.5t-174 -25h-65q-100 0 -176 25t-132.5 64.5t-94.5 90 t-62 103.5q-57 125 -66 283zM291 596q4 -100 41 -182q14 -35 37.5 -69t57.5 -61.5t80 -47t107 -23.5v-4v4q61 4 107.5 23.5t80.5 47t56.5 61.5t38.5 69q37 82 41 182v322q-4 94 -41 172q-16 33 -38.5 65.5t-56.5 58t-80 44t-108 22.5q-61 -4 -107 -22.5t-80 -44t-57.5 -58.5 t-37.5 -65q-37 -78 -41 -172v-322zM418 1626l114 242h162l115 -242h-94l-103 135l-100 -135h-94z" horiz-adv-x="1230" unicode="Ô"/><glyph d="M51 543v448q8 150 68 266q25 49 63.5 97.5t94 86.5t131 60.5t176.5 22.5h61q98 0 174 -22.5t132.5 -60.5t95 -86t63.5 -98q59 -117 68 -266v-448q-8 -158 -66 -283q-25 -53 -63.5 -103.5t-95 -90t-132.5 -64.5t-174 -25h-65q-100 0 -176 25t-132.5 64.5t-94.5 90 t-62 103.5q-57 125 -66 283zM291 598q4 -100 41 -182q14 -35 37.5 -69t57.5 -61.5t80 -47t107 -23.5v-4v4q61 4 107.5 23.5t80.5 47t56.5 61.5t38.5 69q37 82 41 182v322q-4 92 -41 170q-16 33 -38.5 64.5t-56.5 58t-80 45t-108 22.5v4v-4q-61 -4 -107 -22.5t-80 -45 t-57.5 -58.5t-37.5 -64q-37 -78 -41 -170v-322zM346 1661v154q43 27 92 34q109 18 215 -57q59 -45 121 -35q23 4 43.5 15.5t34.5 23.5q16 14 29 33l2 -2v-158q-41 -25 -88 -33q-10 -2 -21.5 -3t-21.5 -1q-86 0 -172 62q-59 45 -121 35q-25 -4 -44.5 -15.5t-33.5 -23.5 q-16 -14 -29 -33z" horiz-adv-x="1230" unicode="Õ"/><glyph d="M51 543q8 -158 66 -283q25 -53 62.5 -103.5t94 -90t132 -64.5t176.5 -25h63q100 0 176 25t131.5 64.5t94 90t63.5 103.5q57 125 68 283v448q-8 150 -68 266q-25 49 -63.5 97.5t-95 86.5t-132.5 60.5t-174 22.5h-61q-100 0 -176 -22.5t-132.5 -60.5t-95.5 -86t-63 -98 q-59 -117 -66 -266v-448zM283 1647v196h196v-196h-196zM291 598v322q4 92 41 170q14 33 37.5 64.5t57.5 58t80 45t107 22.5v4v-4q61 -4 107.5 -22.5t80.5 -45t56.5 -58.5t38.5 -64q37 -78 41 -170v-322q-4 -100 -41 -182q-16 -35 -38.5 -69t-56.5 -61.5t-80 -47t-108 -23.5 v-4v4q-61 4 -107 23.5t-80 47t-57.5 61.5t-37.5 69q-37 82 -41 182zM764 1647v196h197v-196h-197z" horiz-adv-x="1230" unicode="Ö"/><glyph d="M51 84l92 131q-35 59 -53 116.5t-27 104.5q-10 53 -10 107v448q8 150 68 266q25 49 63.5 97.5t94 86.5t131 60.5t176.5 22.5h61q119 0 203 -32t143 -81l72 100l100 -71l-88 -123q39 -57 59.5 -114.5t30.5 -104.5q10 -55 13 -107v-448q-8 -158 -66 -283 q-25 -53 -63.5 -103.5t-95 -90t-132 -64.5t-174.5 -25h-65q-127 0 -215 38t-148 98l-71 -99zM293 598q-2 -18 2 -41q4 -41 22 -98l519 729q-37 35 -90.5 61.5t-129.5 30.5q-61 -4 -107 -22.5t-80 -45t-57.5 -58.5t-37.5 -64q-37 -78 -41 -170v-322zM381 336q35 -47 92 -81 t143 -40q61 4 107.5 23.5t80.5 47t56.5 61.5t38.5 69q37 82 41 182v322q0 23 -4 47q-4 23 -10 50t-19 58z" horiz-adv-x="1230" unicode="Ø"/><glyph d="M100 539v962h240v-907q4 -100 41 -182q14 -35 37.5 -69t57.5 -62.5t80 -48t108 -23.5v-2v2q61 4 107 23.5t80 48t56.5 62.5t38.5 69q37 82 41 182v907h240v-962q-8 -158 -66 -283q-25 -53 -63.5 -103.5t-95 -90t-132 -64.5t-174.5 -25h-32v2v-2h-33q-100 0 -176 25 t-132.5 64.5t-94.5 90t-62 103.5q-57 125 -66 283zM520 1872h94l183 -242h-224z" horiz-adv-x="1329" unicode="Ù"/><glyph d="M100 539q8 -158 66 -283q25 -53 62.5 -103.5t94 -90t132 -64.5t176.5 -25h63q100 0 176 25t131.5 64.5t94.5 90t63 103.5q57 125 68 283v962h-240v-907q-4 -100 -41 -182q-16 -35 -38.5 -69t-56.5 -61.5t-80 -47t-107 -23.5v-4v4q-61 4 -107.5 23.5t-80.5 47t-57.5 61.5 t-37.5 69q-37 82 -41 182v907h-240v-962zM606 1612l53 241h224l-183 -241h-94z" horiz-adv-x="1329" unicode="Ú"/><glyph d="M100 539v962h240v-907q4 -100 41 -182q14 -35 37.5 -69t57.5 -61.5t80 -47t108 -23.5v-4v4q61 4 107 23.5t80 47t56.5 61.5t38.5 69q37 82 41 182v907h240v-962q-8 -158 -66 -283q-25 -53 -63.5 -103.5t-95 -90t-132 -64.5t-174.5 -25h-32v2v-2h-33q-100 0 -176 25 t-132.5 64.5t-94.5 90t-62 103.5q-57 125 -66 283zM469 1645l115 241h161l115 -241h-94l-102 135l-101 -135h-94z" horiz-adv-x="1329" unicode="Û"/><glyph d="M100 539q8 -158 66 -283q25 -53 62.5 -103.5t94 -90t132 -64.5t176.5 -25h63q100 0 176 25t131.5 64.5t94.5 90t63 103.5q57 125 68 283v962h-240v-907q-4 -100 -41 -182q-16 -35 -38.5 -69t-56.5 -61.5t-80 -47t-107 -23.5q-61 4 -107.5 23.5t-80.5 47t-57.5 61.5 t-37.5 69q-37 82 -41 182v907h-240v-962zM322 1647v196h196v-196h-196zM803 1647v196h196v-196h-196z" horiz-adv-x="1329" unicode="Ü"/><glyph d="M43 1501l444 -756v-745h242v745l447 756h-242l-326 -547l-323 547h-242zM537 1612l53 241h223l-182 -241h-94z" horiz-adv-x="1218" unicode="Ý"/><glyph d="M98 -2v1501h242v-311h399q51 0 118 -15.5t127 -60.5t102 -130t44 -222v-6v-4v-5v-4v-4q-2 -139 -44 -222t-102 -128t-126.5 -59.5t-118.5 -14.5h-399v-315h-242zM340 557h383q45 6 82 29q31 18 55.5 57t26.5 109q-2 70 -26.5 108.5t-55.5 57.5q-37 23 -82 24h-383v-385z" horiz-adv-x="1179" unicode="Þ"/><glyph d="M100 -2v938q8 156 66 281q25 53 62.5 103t93 90t130 65.5t173.5 25.5h600v-241h-2l-291 -396q49 -10 101 -35.5t94 -73.5t70 -123t30 -186v-6v-6v-2v-4v-4q-2 -139 -44 -222t-102.5 -128t-127 -59.5t-117.5 -14.5h-252v244h235q45 6 82 28q31 18 55.5 57.5t26.5 108.5 q-2 70 -26.5 109t-55.5 57q-37 23 -82 25h-137v100v145v5l283 381h-340q-53 -10 -94.5 -32t-72 -50.5t-51 -61.5t-32.5 -65q-31 -78 -35 -170v-883h-240z" horiz-adv-x="1290" unicode="ß"/><glyph d="M39 0l440 1501h123h119l444 -1501h-239l-113 391h-420l-114 -391h-240zM449 1855h94l182 -241h-223zM461 629h282l-141 485z" horiz-adv-x="1208" unicode="à"/><glyph d="M39 0h240l112 391h422l113 -391h239l-444 1501h-119h-123zM461 629l141 485l141 -485h-282zM549 1612l53 241h223l-182 -241h-94z" horiz-adv-x="1208" unicode="á"/><glyph d="M39 0l440 1501h121h121l444 -1501h-239l-115 391h-420l-112 -391h-240zM408 1630l114 242h162l115 -242h-94l-103 135l-100 -135h-94zM461 629h280l-139 485z" horiz-adv-x="1208" unicode="â"/><glyph d="M39 0l440 1501h123h119l444 -1501h-239l-113 391h-420l-114 -391h-240zM334 1673v154q43 27 92 35q109 18 215 -58q59 -45 121 -35q23 4 43 15.5t35 23.5q16 14 28 33l2 -2v-158q-41 -25 -88 -32q-10 -2 -21 -3t-22 -1q-86 0 -172 61q-59 45 -121 35q-25 -4 -44 -15.5 t-33 -23.5q-16 -14 -29 -33zM461 629h282l-141 485z" horiz-adv-x="1208" unicode="ã"/><glyph d="M39 0h240l114 391h420l113 -391h239l-444 1501h-119h-123zM262 1647v196h197v-196h-197zM461 629l141 485l141 -485h-282zM743 1647v196h197v-196h-197z" horiz-adv-x="1208" unicode="ä"/><glyph d="M39 0h240l114 391h420l113 -391h239l-444 1501h-119h-123zM395 1769q0 86 59.5 145.5t145.5 59.5t145.5 -59.5t59.5 -145.5t-59.5 -145t-145.5 -59t-145.5 59t-59.5 145zM461 629l141 485l141 -485h-282zM518 1769q0 -35 23.5 -58t58.5 -23t58.5 23.5t23.5 57.5 q0 35 -23.5 58.5t-58.5 23.5t-58.5 -23.5t-23.5 -58.5z" horiz-adv-x="1208" unicode="å"/><glyph d="M45 0l569 1501h1092v-241h-692v-386h362v-241h-362v-389h692v-242h-934v389h-334l-149 -391h-244zM530 629h242v633z" horiz-adv-x="1765" unicode="æ"/><glyph d="M51 565v400q8 150 66 266q25 49 62.5 97t94 86t132 61.5t176.5 23.5h532v-242h-244h-217q-68 0 -120 -15t-89.5 -41.5t-64.5 -59.5t-43 -66q-39 -82 -45 -182v-275q6 -109 45 -192q16 -37 43 -70.5t64.5 -61.5t90 -44.5t119.5 -16.5l461 3v-238h-407v-21q61 -18 102 -71 t41 -123q0 -86 -59.5 -145.5t-145.5 -59.5q-78 0 -137 53q-29 27 -47.5 64t-20.5 80h123q2 -29 23 -47q23 -27 59 -27q35 0 58.5 23.5t23.5 58.5t-23.5 58.5t-58.5 23.5h-61v133h-2q-100 0 -176 24.5t-132.5 64.5t-94.5 90t-62 104q-57 125 -66 284z" horiz-adv-x="1167" unicode="ç"/><glyph d="M100 0v1499h1037v-242h-795v-385h465v-241h-465v-391h795v-240h-1037zM479 1825h94l183 -242h-224z" unicode="è"/><glyph d="M100 2h1037v242h-795v389h467v241h-467v386h795v241h-1037v-1499zM565 1583l53 242h224l-183 -242h-94z" unicode="é"/><glyph d="M100 2v1499h1037v-241h-795v-386h465v-241h-465v-389h795v-242h-1037zM436 1616l115 242h162l114 -242h-94l-102 135l-101 -135h-94z" unicode="ê"/><glyph d="M100 0h1037v242h-795v391h465v241h-465v386h795v241h-1037v-1501zM287 1647v196h196v-196h-196zM768 1647v196h197v-196h-197z" unicode="ë"/><glyph d="M68 1862h94l182 -242h-223zM106 -2v1503h242v-1503h-242z" horiz-adv-x="446" unicode="ì"/><glyph d="M102 -2v1503h242v-1503h-242zM141 1620l54 242h223l-182 -242h-95z" horiz-adv-x="446" unicode="í"/><glyph d="M33 1630l114 242h162l115 -242h-94l-103 135l-100 -135h-94zM109 -2v1501h241v-1501h-241z" horiz-adv-x="446" unicode="î"/><glyph d="M-31 1647v196h197v-196h-197zM100 -2v1503h242v-1503h-242zM287 1647v196h196v-196h-196z" horiz-adv-x="446" unicode="ï"/><glyph d="M37 686v123h149l2 692h531q98 0 174 -23.5t132 -61.5t95 -86t64 -97q59 -117 67 -266v-402q-10 -158 -69 -282q-25 -53 -64 -103.5t-96 -90.5t-133 -64.5t-174 -24.5h-533l2 686h-147zM432 236h217q68 0 119 16t90 44t65.5 61.5t43.5 70.5q39 84 45 193v274 q-6 100 -45 180q-16 33 -43 66t-66 59.5t-90 41.5t-119 15h-217v-448h285v-123h-285v-450z" horiz-adv-x="1304" unicode="ð"/><glyph d="M104 -2v1501h242l639 -1059v1061h252v-1503h-252l-639 1061v-1061h-242zM401 1661v154q43 27 93 34q109 18 215 -57q59 -45 120 -35q23 4 43.5 15.5t34.5 23.5q16 14 29 33l2 -2v-158q-41 -25 -88 -33q-10 -2 -21.5 -3t-21.5 -1q-86 0 -172 62q-59 45 -121 35 q-25 -4 -44 -15.5t-34 -23.5q-16 -14 -28 -33z" horiz-adv-x="1341" unicode="ñ"/><glyph d="M51 545v448q6 150 66 267q25 49 63.5 97t95 86t132 60.5t176.5 22.5h61q98 0 174 -22.5t132.5 -60.5t95 -86t63.5 -97q59 -117 68 -267v-448q-10 -158 -68 -283q-25 -53 -63.5 -103t-94 -90t-131.5 -64.5t-176 -24.5h-63q-100 0 -176 24.5t-132.5 64.5t-94.5 90t-62 103 q-57 125 -66 283zM291 600q4 -100 41 -182q14 -35 37.5 -69t57.5 -61.5t80 -47t107 -23.5v-4v4q61 4 107.5 23.5t80.5 47t56.5 61.5t38.5 69q37 82 41 182v322q-4 94 -41 172q-16 33 -38.5 65.5t-56.5 58t-80 44t-108 22.5q-61 -4 -107 -22.5t-80 -44t-57.5 -58.5t-37.5 -65 q-37 -78 -41 -172v-322zM485 1853h95l182 -241h-223z" horiz-adv-x="1230" unicode="ò"/><glyph d="M51 551q8 -158 66 -283q25 -53 62.5 -103t94 -90t132 -64.5t176.5 -24.5h63q100 0 176 24.5t131.5 64.5t94 90t63.5 103q57 125 68 283v448q-8 150 -68 267q-25 49 -63.5 97t-95 86t-132.5 60.5t-174 22.5h-61q-100 0 -176 -22.5t-132.5 -60.5t-95.5 -86t-63 -97 q-59 -117 -66 -267v-448zM291 606v322q4 94 41 172q14 33 37.5 65.5t57.5 58t80 44t107 22.5q61 -4 107.5 -22.5t80.5 -44t56.5 -58t38.5 -65.5q37 -78 41 -172v-322q-4 -100 -41 -182q-16 -35 -38.5 -68.5t-56.5 -61.5t-80 -47.5t-108 -23.5v-4v4q-61 4 -107 23.5t-80 47.5 t-57.5 61.5t-37.5 68.5q-37 82 -41 182zM549 1620l53 242h223l-182 -242h-94z" horiz-adv-x="1230" unicode="ó"/><glyph d="M51 541v448q8 150 68 266q25 49 63.5 97.5t94 86.5t131 60.5t176.5 22.5h61q98 0 174 -22.5t132.5 -60.5t95 -86t63.5 -98q59 -117 68 -266v-448q-8 -158 -66 -283q-25 -53 -63.5 -103.5t-95 -90t-132.5 -64.5t-174 -25h-65q-100 0 -176 25t-132.5 64.5t-94.5 90 t-62 103.5q-57 125 -66 283zM291 596q4 -100 41 -182q14 -35 37.5 -69t57.5 -61.5t80 -47t107 -23.5v-4v4q61 4 107.5 23.5t80.5 47t56.5 61.5t38.5 69q37 82 41 182v322q-4 94 -41 172q-16 33 -38.5 65.5t-56.5 58t-80 44t-108 22.5q-61 -4 -107 -22.5t-80 -44t-57.5 -58.5 t-37.5 -65q-37 -78 -41 -172v-322zM418 1626l114 242h162l115 -242h-94l-103 135l-100 -135h-94z" horiz-adv-x="1230" unicode="ô"/><glyph d="M51 543v448q8 150 68 266q25 49 63.5 97.5t94 86.5t131 60.5t176.5 22.5h61q98 0 174 -22.5t132.5 -60.5t95 -86t63.5 -98q59 -117 68 -266v-448q-8 -158 -66 -283q-25 -53 -63.5 -103.5t-95 -90t-132.5 -64.5t-174 -25h-65q-100 0 -176 25t-132.5 64.5t-94.5 90 t-62 103.5q-57 125 -66 283zM291 598q4 -100 41 -182q14 -35 37.5 -69t57.5 -61.5t80 -47t107 -23.5v-4v4q61 4 107.5 23.5t80.5 47t56.5 61.5t38.5 69q37 82 41 182v322q-4 92 -41 170q-16 33 -38.5 64.5t-56.5 58t-80 45t-108 22.5v4v-4q-61 -4 -107 -22.5t-80 -45 t-57.5 -58.5t-37.5 -64q-37 -78 -41 -170v-322zM346 1661v154q43 27 92 34q109 18 215 -57q59 -45 121 -35q23 4 43.5 15.5t34.5 23.5q16 14 29 33l2 -2v-158q-41 -25 -88 -33q-10 -2 -21.5 -3t-21.5 -1q-86 0 -172 62q-59 45 -121 35q-25 -4 -44.5 -15.5t-33.5 -23.5 q-16 -14 -29 -33z" horiz-adv-x="1230" unicode="õ"/><glyph d="M51 543q8 -158 66 -283q25 -53 62.5 -103.5t94 -90t132 -64.5t176.5 -25h63q100 0 176 25t131.5 64.5t94 90t63.5 103.5q57 125 68 283v448q-8 150 -68 266q-25 49 -63.5 97.5t-95 86.5t-132.5 60.5t-174 22.5h-61q-100 0 -176 -22.5t-132.5 -60.5t-95.5 -86t-63 -98 q-59 -117 -66 -266v-448zM283 1647v196h196v-196h-196zM291 598v322q4 92 41 170q14 33 37.5 64.5t57.5 58t80 45t107 22.5v4v-4q61 -4 107.5 -22.5t80.5 -45t56.5 -58.5t38.5 -64q37 -78 41 -170v-322q-4 -100 -41 -182q-16 -35 -38.5 -69t-56.5 -61.5t-80 -47t-108 -23.5 v-4v4q-61 4 -107 23.5t-80 47t-57.5 61.5t-37.5 69q-37 82 -41 182zM764 1647v196h197v-196h-197z" horiz-adv-x="1230" unicode="ö"/><glyph d="M94 625v123h819v-123h-819zM379 260v242h242v-242h-242zM379 868v242h242v-242h-242z" horiz-adv-x="1001" unicode="÷"/><glyph d="M51 84l92 131q-35 59 -53 116.5t-27 104.5q-10 53 -10 107v448q8 150 68 266q25 49 63.5 97.5t94 86.5t131 60.5t176.5 22.5h61q119 0 203 -32t143 -81l72 100l100 -71l-88 -123q39 -57 59.5 -114.5t30.5 -104.5q10 -55 13 -107v-448q-8 -158 -66 -283 q-25 -53 -63.5 -103.5t-95 -90t-132 -64.5t-174.5 -25h-65q-127 0 -215 38t-148 98l-71 -99zM293 598q-2 -18 2 -41q4 -41 22 -98l519 729q-37 35 -90.5 61.5t-129.5 30.5q-61 -4 -107 -22.5t-80 -45t-57.5 -58.5t-37.5 -64q-37 -78 -41 -170v-322zM381 336q35 -47 92 -81 t143 -40q61 4 107.5 23.5t80.5 47t56.5 61.5t38.5 69q37 82 41 182v322q0 23 -4 47q-4 23 -10 50t-19 58z" horiz-adv-x="1230" unicode="ø"/><glyph d="M104 539v962h240v-907q4 -100 41 -182q14 -35 37.5 -69t57.5 -62.5t80 -48t108 -23.5v-2v2q61 4 107 23.5t80 48t56.5 62.5t38.5 69q37 82 41 182v907h240v-962q-8 -158 -66 -283q-25 -53 -63.5 -103.5t-95 -90t-132 -64.5t-174.5 -25h-32v2v-2h-33q-100 0 -176 25 t-132.5 64.5t-94 90t-62.5 103.5q-57 125 -66 283zM524 1872h94l183 -242h-223z" horiz-adv-x="1341" unicode="ù"/><glyph d="M104 539q8 -158 66 -283q25 -53 62.5 -103.5t94 -90t132.5 -64.5t176 -25h63q100 0 176 25t131.5 64.5t94.5 90t63 103.5q57 125 68 283v962h-240v-907q-4 -100 -41 -182q-16 -35 -38.5 -69t-56.5 -61.5t-80 -47t-107 -23.5v-4v4q-61 4 -107.5 23.5t-80.5 47t-57.5 61.5 t-37.5 69q-37 82 -41 182v907h-240v-962zM610 1612l54 241h223l-182 -241h-95z" horiz-adv-x="1341" unicode="ú"/><glyph d="M104 539v962h240v-907q4 -100 41 -182q14 -35 37.5 -69t57.5 -61.5t80 -47t108 -23.5v-4v4q61 4 107 23.5t80 47t56.5 61.5t38.5 69q37 82 41 182v907h240v-962q-8 -158 -66 -283q-25 -53 -63.5 -103.5t-95 -90t-132 -64.5t-174.5 -25h-32v2v-2h-33q-100 0 -176 25 t-132.5 64.5t-94 90t-62.5 103.5q-57 125 -66 283zM473 1645l115 241h162l114 -241h-94l-102 135l-101 -135h-94z" horiz-adv-x="1341" unicode="û"/><glyph d="M104 539q8 -158 66 -283q25 -53 62.5 -103.5t94 -90t132.5 -64.5t176 -25h63q100 0 176 25t131.5 64.5t94.5 90t63 103.5q57 125 68 283v962h-240v-907q-4 -100 -41 -182q-16 -35 -38.5 -69t-56.5 -61.5t-80 -47t-107 -23.5q-61 4 -107.5 23.5t-80.5 47t-57.5 61.5 t-37.5 69q-37 82 -41 182v907h-240v-962zM326 1647v196h196v-196h-196zM807 1647v196h197v-196h-197z" horiz-adv-x="1341" unicode="ü"/><glyph d="M45 1501l444 -756v-745h242v745l447 756h-242l-326 -547l-323 547h-242zM539 1612l53 241h223l-182 -241h-94z" horiz-adv-x="1218" unicode="ý"/><glyph d="M-2 -2v1501h242v-311h399q51 0 117.5 -15.5t127 -60.5t102.5 -130t44 -222v-6v-4v-5v-4v-4q-2 -139 -44 -222t-102.5 -128t-127 -59.5t-117.5 -14.5h-399v-315h-242zM240 557h383q45 6 82 29q31 18 55 57t26 109q-2 70 -26.5 108.5t-54.5 57.5q-37 23 -82 24h-383v-385z" horiz-adv-x="1034" unicode="þ"/><glyph d="M45 1501l444 -756v-745h242v745l447 756h-242l-326 -547l-323 547h-242zM268 1647v196h197v-196h-197zM750 1647v196h196v-196h-196z" horiz-adv-x="1222" unicode="ÿ"/><glyph d="M51 565v402q8 150 68 266q25 49 63.5 97t94 86t131 61.5t176.5 23.5h432h692v-241h-692v-388h362v-239h-362v-391h692v-242h-692h-432q-100 0 -176 24.5t-132.5 64.5t-95.5 90t-63 104q-59 125 -66 282zM291 621q6 -109 45 -193q16 -37 43 -70.5t64.5 -61.5t90 -44 t119.5 -16h119v1021h-119q-68 0 -120 -15t-89.5 -41.5t-64.5 -59.5t-43 -66q-39 -80 -45 -180v-274z" horiz-adv-x="1765" unicode="Œ"/><glyph d="M51 565v402q8 150 68 266q25 49 63.5 97t94 86t131 61.5t176.5 23.5h432h692v-241h-692v-388h362v-239h-362v-391h692v-242h-692h-432q-100 0 -176 24.5t-132.5 64.5t-95.5 90t-63 104q-59 125 -66 282zM291 621q6 -109 45 -193q16 -37 43 -70.5t64.5 -61.5t90 -44 t119.5 -16h119v1021h-119q-68 0 -120 -15t-89.5 -41.5t-64.5 -59.5t-43 -66q-39 -80 -45 -180v-274z" horiz-adv-x="1765" unicode="œ"/><glyph d="M45 1501l444 -756v-745h242v745l447 756h-242l-326 -547l-323 547h-242zM268 1647v196h197v-196h-197zM750 1647v196h196v-196h-196z" horiz-adv-x="1222" unicode="Ÿ"/><glyph d="M82 1626l115 242h161l115 -242h-94l-103 135l-100 -135h-94z" horiz-adv-x="552" unicode="ˆ"/><glyph horiz-adv-x="987"/><glyph horiz-adv-x="1974"/><glyph horiz-adv-x="987"/><glyph horiz-adv-x="1974"/><glyph horiz-adv-x="658"/><glyph horiz-adv-x="493"/><glyph horiz-adv-x="329"/><glyph horiz-adv-x="329"/><glyph horiz-adv-x="246"/><glyph horiz-adv-x="394"/><glyph horiz-adv-x="109"/><glyph d="M94 625v123h541v-123h-541z" horiz-adv-x="720" unicode="‐"/><glyph d="M94 625v123h541v-123h-541z" horiz-adv-x="720" unicode="‑"/><glyph d="M94 625v123h541v-123h-541z" horiz-adv-x="720" unicode="‒"/><glyph d="M94 625v123h819v-123h-819z" horiz-adv-x="1015" unicode="–"/><glyph d="M94 625v123h819v-123h-819z" horiz-adv-x="1015" unicode="—"/><glyph d="M70 1528v168h219v-168l-51 -262h-115z" horiz-adv-x="362" unicode="‘"/><glyph d="M70 1528v168h219v-168l-51 -262h-115z" horiz-adv-x="362" unicode="’"/><glyph d="M70 1528v168h219v-168l-51 -262h-115z" horiz-adv-x="362" unicode="‚"/><glyph d="M90 1528v168h219v-168l-51 -262h-115zM389 1528v168h219v-168l-51 -262h-115z" horiz-adv-x="690" unicode="“"/><glyph d="M90 1528v168h219v-168l-51 -262h-115zM389 1528v168h219v-168l-51 -262h-115z" horiz-adv-x="690" unicode="”"/><glyph d="M117 627v241h241v-241h-241z" horiz-adv-x="477" unicode="•"/><glyph horiz-adv-x="394"/><glyph horiz-adv-x="493"/><glyph d="M29 872v123h118q2 29 11.5 77t30 104.5t56.5 114t94 104.5t140 76.5t197 29.5h532v-241h-463q-88 0 -148 -26t-100 -66t-62.5 -86t-33.5 -87h510v-123h-526v-233h530v-123h-516q10 -43 33 -92t63 -91t100 -69.5t150 -27.5l463 2v-238h-532q-109 0 -188.5 28.5t-137 75 t-94.5 103.5t-59.5 114.5t-32.5 108.5t-14 86h-119v123h114v233h-116z" horiz-adv-x="1267" unicode="€"/><glyph d="M0 0v1505h1505v-1505h-1505z" horiz-adv-x="1505" unicode="◼"/></font>
</defs>
</svg>
